PathFileType	4	(X/Y/Z)	C:/Users/opensim2020/Desktop/walking_exp_matlab/subject01_walking14_straight_03.trc																																																																																																																												
DataRate	CameraRate	NumFrames	NumMarkers	Units	OrigDataRate	OrigDataStartFrame	OrigNumFrames																																																																																																																								
100	100	4	42	mm	100	1613	121																																																																																																																								
Frame#	Time	LFHD			RFHD			LBHD			RBHD			C7			T10			CLAV			STRN			RBAK			LSHO			LUPA			LELB			LFRM			LWRA			LWRB			LFIN			RSHO			RUPA			RELB			RFRM			RWRA			RWRB			RFIN			LASI			RASI			LPSI			RPSI			LTHI			LKNE			LTIB			LANK			LHEE			LTOE			RTHI			RKNE			RTIB			RANK			RHEE			RTOE			*39			*40			*41		
		X1	Y1	Z1	X2	Y2	Z2	X3	Y3	Z3	X4	Y4	Z4	X5	Y5	Z5	X6	Y6	Z6	X7	Y7	Z7	X8	Y8	Z8	X9	Y9	Z9	X10	Y10	Z10	X11	Y11	Z11	X12	Y12	Z12	X13	Y13	Z13	X14	Y14	Z14	X15	Y15	Z15	X16	Y16	Z16	X17	Y17	Z17	X18	Y18	Z18	X19	Y19	Z19	X20	Y20	Z20	X21	Y21	Z21	X22	Y22	Z22	X23	Y23	Z23	X24	Y24	Z24	X25	Y25	Z25	X26	Y26	Z26	X27	Y27	Z27	X28	Y28	Z28	X29	Y29	Z29	X30	Y30	Z30	X31	Y31	Z31	X32	Y32	Z32	X33	Y33	Z33	X34	Y34	Z34	X35	Y35	Z35	X36	Y36	Z36	X37	Y37	Z37	X38	Y38	Z38	X39	Y39	Z39	X40	Y40	Z40	X41	Y41	Z41	X42	Y42	Z42
																																																																																																																															
16	0.15	-497.15323	1657.38757	1467.54456	-456.00607	1664.68994	1572.82593	-604.27539	1606.88953	1505.08215	-562.98431	1612.75549	1617.46411	-628.57843	1419.06714	1529.15259	-664.74823	1124.04834	1515.46765	-480.92252	1352.62805	1522.54419	-438.27585	1199.88599	1510.04358	-682.55457	1223.51782	1593.22827	-546.96423	1390.07141	1365.88354	-582.03473	1217.68896	1265.86328	-596.8764	1065.26196	1245.89514	-507.52652	984.19885	1233.8042	-385.15778	930.16083	1265.74573	-425.55136	894.24615	1241.61841	-348.51672	863.8277	1234.69324	-545.67706	1381.6637	1674.65515	-630.5144	1187.65759	1764.82703	-637.69196	1063.33789	1769.85449	-626.23041	944.74469	1802.9408	-560.09143	818.0639	1792.83459	-606.68512	825.68408	1826.00562	-579.72791	746.42261	1836.99841	-493.58527	920.80963	1394.56104	-475.8233	930.21301	1609.21558	-674.66083	923.90411	1461.34595	-663.28986	934.5116	1605.56775	-516.75012	577.93372	1340.21277	-528.19983	445.4183	1348.52502	-683.46539	347.41534	1347.02576	-859.51819	225.03696	1404.99353	-894.73511	245.57558	1464.88159	-840.38873	77.41804	1395.89063	-473.45166	604.89526	1690.72656	-428.93759	452.00247	1676.98975	-478.0448	280.73849	1695.74121	-501.74802	74.05651	1660.86963	-552.05688	34.25515	1614.15747	-361.98892	35.13122	1664.83936	-474.51031	1697.17712	1554.93909	1973.17383	1023.46521	-3101.95166	2012.54907	1022.10651	-3140.7356
17	0.16	-484.23578	1658.87012	1469.45239	-442.48087	1665.69373	1574.64148	-591.39478	1609.02161	1507.3479	-549.65045	1614.39233	1619.56982	-616.55835	1420.8092	1531.28003	-653.21069	1125.76147	1517.97571	-469.09695	1353.97681	1523.72302	-426.83685	1201.21021	1511.10388	-670.63391	1225.39795	1595.98621	-536.03912	1391.4386	1367.40405	-573.05792	1219.0708	1268.20825	-589.22144	1066.16064	1249.3623	-502.89868	982.1828	1236.04553	-381.76068	924.20587	1265.88586	-423.87607	889.61572	1242.94128	-348.1825	856.66516	1234.43921	-532.8988	1383.12097	1676.20032	-614.71985	1188.46497	1767.88184	-620.95685	1064.00525	1772.72107	-606.84442	945.4729	1805.53894	-538.33655	820.1485	1794.46509	-584.86505	826.67889	1828.05542	-556.0141	748.2417	1838.94946	-482.83102	922.74286	1396.08215	-464.6264	931.22198	1611.12891	-663.17035	925.16309	1462.97717	-652.15186	935.86047	1607.05273	-498.93185	580.89008	1341.11328	-506.47543	449.07553	1349.604	-660.92554	350.63712	1350.07666	-836.35321	228.45601	1409.30078	-871.68274	247.15979	1470.17444	-815.46301	81.65194	1395.19177	-466.28238	604.80188	1691.5614	-424.81924	451.09085	1677.81299	-476.12137	280.54379	1696.13318	-501.52896	74.02612	1660.82434	-551.65631	33.96139	1614.21729	-361.97836	35.09903	1664.79529	-460.73242	1698.39282	1556.96216	1973.09741	1023.42615	-3101.95776	2012.5072	1022.10242	-3140.66528
18	0.17	-471.20227	1660.24182	1471.14868	-429.05078	1666.64856	1576.16406	-578.58167	1611.05408	1509.34705	-536.36707	1615.99243	1621.44177	-604.4704	1422.31055	1533.1958	-641.69342	1127.39783	1520.37036	-457.31131	1355.26868	1524.74902	-415.35138	1202.49036	1512.17297	-658.65588	1227.19556	1598.52429	-525.11798	1392.77771	1368.87671	-564.25488	1220.42017	1270.42224	-581.51294	1067.27588	1252.65466	-498.47208	980.24384	1238.19299	-378.90527	918.18628	1265.90955	-422.77591	884.93097	1244.27551	-348.3457	849.17609	1234.35327	-520.23035	1384.73657	1677.66309	-599.09729	1189.51941	1770.72083	-604.31549	1064.78418	1775.50012	-587.48486	946.42859	1807.89136	-516.41089	822.6806	1795.9635	-562.63495	828.20258	1830.1377	-532.05261	750.49042	1840.62341	-470.41357	925.12286	1397.80737	-453.41061	932.31531	1613.22534	-651.72058	927.03625	1464.40698	-641.00024	937.04718	1608.39465	-480.97528	584.03009	1341.95227	-484.7832	452.66647	1350.54395	-638.30603	353.58325	1353.36353	-812.38635	230.28346	1413.22205	-848.00757	247.09131	1475.00488	-788.7251	84.65018	1395.896	-456.16068	606.66943	1694.13245	-420.64178	450.34305	1678.34387	-473.74863	280.31503	1696.52783	-501.30142	74.09043	1660.74512	-551.651	34.03213	1614.08215	-361.90527	34.9778	1664.74805	-447.11322	1699.56677	1558.64258	1973.0415	1023.79877	-3101.94702	2012.52319	1022.05939	-3140.74194
19	0.18	-458.21136	1661.48901	1472.5592	-415.76428	1667.57031	1577.38257	-565.82886	1612.82642	1511.11731	-523.13947	1617.47144	1623.02393	-592.63147	1423.99463	1535.18433	-630.20093	1129.06946	1522.68298	-445.56348	1356.59229	1525.80701	-403.93991	1203.77063	1513.16162	-646.74695	1228.85486	1600.92749	-514.2525	1394.04626	1370.29468	-555.65253	1221.77246	1272.71912	-574.99017	1068.53064	1255.25195	-494.43115	978.48694	1240.47852	-376.53189	912.12585	1265.72571	-422.13733	880.43921	1245.50024	-349.48795	841.76532	1234.1106	-507.74344	1386.46265	1679.07117	-583.77118	1190.65625	1773.21741	-587.79108	1065.72278	1777.95398	-568.13715	947.67181	1810.0144	-494.42828	825.53931	1797.19446	-540.24689	830.10699	1831.93237	-507.7767	753.0578	1842.0448	-459.03867	927.05573	1399.69238	-442.23996	933.34735	1615.29895	-639.96082	928.62537	1465.4353	-629.91986	938.47986	1609.76929	-462.87357	587.15808	1342.82214	-463.24142	455.98691	1351.38403	-615.66278	356.03534	1356.61963	-788.18048	230.5524	1416.88	-824.29694	245.85266	1479.27734	-760.35193	86.72337	1397.04761	-448.55872	606.68176	1694.81445	-416.3877	449.68771	1678.71582	-471.13123	280.04034	1696.84241	-501.12894	74.25876	1660.84595	-552.01184	34.81016	1614.05469	-361.82141	34.86539	1664.67053	-433.67462	1700.67212	1559.9408	1973.15222	1023.43665	-3102.04663	2012.54053	1022.13898	-3140.77808
